<mxfile host="app.diagrams.net" modified="2023-08-07T03:58:12.115Z" agent="Mozilla/5.0 (Windows NT 10.0; Win64; x64) AppleWebKit/537.36 (KHTML, like Gecko) Chrome/115.0.0.0 Safari/537.36" etag="bWSgddzea7xLawvzkOUG" version="21.6.6" type="github">
  <diagram name="페이지-1" id="rlZCWlXYZUiRp-8I8A-k">
    <mxGraphModel dx="491" dy="538" grid="1" gridSize="10" guides="1" tooltips="1" connect="1" arrows="1" fold="1" page="1" pageScale="1" pageWidth="827" pageHeight="1169" math="0" shadow="0">
      <root>
        <mxCell id="0" />
        <mxCell id="1" parent="0" />
        <mxCell id="_mJRG62SqhLyH0FngQ-F-38" style="edgeStyle=orthogonalEdgeStyle;rounded=0;orthogonalLoop=1;jettySize=auto;html=1;exitX=1;exitY=0.3333333333333333;exitDx=0;exitDy=0;exitPerimeter=0;entryX=-0.047;entryY=0.436;entryDx=0;entryDy=0;entryPerimeter=0;" edge="1" parent="1" source="_mJRG62SqhLyH0FngQ-F-17" target="_mJRG62SqhLyH0FngQ-F-18">
          <mxGeometry relative="1" as="geometry" />
        </mxCell>
        <mxCell id="_mJRG62SqhLyH0FngQ-F-17" value="Actor" style="shape=umlActor;verticalLabelPosition=bottom;verticalAlign=top;html=1;outlineConnect=0;" vertex="1" parent="1">
          <mxGeometry x="20" y="20" width="30" height="50" as="geometry" />
        </mxCell>
        <mxCell id="_mJRG62SqhLyH0FngQ-F-51" style="edgeStyle=orthogonalEdgeStyle;rounded=0;orthogonalLoop=1;jettySize=auto;html=1;entryX=0.5;entryY=0;entryDx=0;entryDy=0;" edge="1" parent="1">
          <mxGeometry relative="1" as="geometry">
            <mxPoint x="249.65999999999988" y="70" as="sourcePoint" />
            <mxPoint x="249.65999999999988" y="230" as="targetPoint" />
          </mxGeometry>
        </mxCell>
        <mxCell id="_mJRG62SqhLyH0FngQ-F-18" value="목록&lt;br&gt;/shirt/list" style="rounded=0;whiteSpace=wrap;html=1;" vertex="1" parent="1">
          <mxGeometry x="210" y="10" width="80" height="60" as="geometry" />
        </mxCell>
        <mxCell id="_mJRG62SqhLyH0FngQ-F-41" style="edgeStyle=orthogonalEdgeStyle;rounded=0;orthogonalLoop=1;jettySize=auto;html=1;exitX=1;exitY=0.5;exitDx=0;exitDy=0;entryX=0;entryY=0.5;entryDx=0;entryDy=0;" edge="1" parent="1" source="_mJRG62SqhLyH0FngQ-F-20" target="_mJRG62SqhLyH0FngQ-F-33">
          <mxGeometry relative="1" as="geometry" />
        </mxCell>
        <mxCell id="_mJRG62SqhLyH0FngQ-F-44" style="edgeStyle=orthogonalEdgeStyle;rounded=0;orthogonalLoop=1;jettySize=auto;html=1;exitX=0.75;exitY=0;exitDx=0;exitDy=0;entryX=0.565;entryY=1.01;entryDx=0;entryDy=0;entryPerimeter=0;" edge="1" parent="1" source="_mJRG62SqhLyH0FngQ-F-20" target="_mJRG62SqhLyH0FngQ-F-32">
          <mxGeometry relative="1" as="geometry">
            <mxPoint x="270" y="200" as="targetPoint" />
          </mxGeometry>
        </mxCell>
        <mxCell id="_mJRG62SqhLyH0FngQ-F-20" value="상세&lt;br&gt;/shirt/detail" style="rounded=0;whiteSpace=wrap;html=1;" vertex="1" parent="1">
          <mxGeometry x="210" y="230" width="80" height="60" as="geometry" />
        </mxCell>
        <mxCell id="_mJRG62SqhLyH0FngQ-F-40" style="edgeStyle=orthogonalEdgeStyle;rounded=0;orthogonalLoop=1;jettySize=auto;html=1;exitX=1;exitY=0.5;exitDx=0;exitDy=0;entryX=0;entryY=0.5;entryDx=0;entryDy=0;" edge="1" parent="1" source="_mJRG62SqhLyH0FngQ-F-30" target="_mJRG62SqhLyH0FngQ-F-20">
          <mxGeometry relative="1" as="geometry" />
        </mxCell>
        <mxCell id="_mJRG62SqhLyH0FngQ-F-55" style="edgeStyle=orthogonalEdgeStyle;rounded=0;orthogonalLoop=1;jettySize=auto;html=1;exitX=0;exitY=0.5;exitDx=0;exitDy=0;" edge="1" parent="1" source="_mJRG62SqhLyH0FngQ-F-30">
          <mxGeometry relative="1" as="geometry">
            <mxPoint x="69.68965517241384" y="259.9310344827586" as="targetPoint" />
          </mxGeometry>
        </mxCell>
        <mxCell id="_mJRG62SqhLyH0FngQ-F-30" value="등록&lt;br&gt;/shirt/add[POST]" style="rounded=0;whiteSpace=wrap;html=1;" vertex="1" parent="1">
          <mxGeometry x="60" y="230" width="90" height="60" as="geometry" />
        </mxCell>
        <mxCell id="_mJRG62SqhLyH0FngQ-F-45" style="edgeStyle=orthogonalEdgeStyle;rounded=0;orthogonalLoop=1;jettySize=auto;html=1;exitX=0.5;exitY=0;exitDx=0;exitDy=0;entryX=0.996;entryY=0.355;entryDx=0;entryDy=0;entryPerimeter=0;" edge="1" parent="1" source="_mJRG62SqhLyH0FngQ-F-32" target="_mJRG62SqhLyH0FngQ-F-18">
          <mxGeometry relative="1" as="geometry">
            <mxPoint x="389.68965517241384" y="40" as="targetPoint" />
          </mxGeometry>
        </mxCell>
        <mxCell id="_mJRG62SqhLyH0FngQ-F-32" value="삭제&lt;br&gt;/shirt/delete" style="rounded=0;whiteSpace=wrap;html=1;" vertex="1" parent="1">
          <mxGeometry x="350" y="100" width="80" height="60" as="geometry" />
        </mxCell>
        <mxCell id="_mJRG62SqhLyH0FngQ-F-54" style="edgeStyle=orthogonalEdgeStyle;rounded=0;orthogonalLoop=1;jettySize=auto;html=1;" edge="1" parent="1" source="_mJRG62SqhLyH0FngQ-F-33" target="_mJRG62SqhLyH0FngQ-F-34">
          <mxGeometry relative="1" as="geometry" />
        </mxCell>
        <mxCell id="_mJRG62SqhLyH0FngQ-F-33" value="수정&lt;br&gt;/shirt/edit[GET]" style="rounded=0;whiteSpace=wrap;html=1;" vertex="1" parent="1">
          <mxGeometry x="330" y="230" width="100" height="60" as="geometry" />
        </mxCell>
        <mxCell id="_mJRG62SqhLyH0FngQ-F-42" style="edgeStyle=orthogonalEdgeStyle;rounded=0;orthogonalLoop=1;jettySize=auto;html=1;exitX=0;exitY=0.5;exitDx=0;exitDy=0;entryX=0.5;entryY=1;entryDx=0;entryDy=0;" edge="1" parent="1" source="_mJRG62SqhLyH0FngQ-F-34" target="_mJRG62SqhLyH0FngQ-F-20">
          <mxGeometry relative="1" as="geometry">
            <mxPoint x="250" y="370.2758620689656" as="targetPoint" />
          </mxGeometry>
        </mxCell>
        <mxCell id="_mJRG62SqhLyH0FngQ-F-34" value="수정&lt;br&gt;/shirt/edit/[POST]" style="rounded=0;whiteSpace=wrap;html=1;" vertex="1" parent="1">
          <mxGeometry x="330" y="340" width="100" height="60" as="geometry" />
        </mxCell>
        <mxCell id="_mJRG62SqhLyH0FngQ-F-39" style="edgeStyle=orthogonalEdgeStyle;rounded=0;orthogonalLoop=1;jettySize=auto;html=1;exitX=0.5;exitY=1;exitDx=0;exitDy=0;entryX=0.5;entryY=0;entryDx=0;entryDy=0;" edge="1" parent="1" source="_mJRG62SqhLyH0FngQ-F-35" target="_mJRG62SqhLyH0FngQ-F-30">
          <mxGeometry relative="1" as="geometry">
            <Array as="points">
              <mxPoint x="105" y="160" />
            </Array>
          </mxGeometry>
        </mxCell>
        <mxCell id="_mJRG62SqhLyH0FngQ-F-35" value="등록&lt;br&gt;/shirt/add[GET]" style="rounded=0;whiteSpace=wrap;html=1;" vertex="1" parent="1">
          <mxGeometry x="60" y="100" width="100" height="60" as="geometry" />
        </mxCell>
        <mxCell id="_mJRG62SqhLyH0FngQ-F-52" value="" style="endArrow=classic;html=1;rounded=0;entryX=0.5;entryY=0;entryDx=0;entryDy=0;" edge="1" parent="1" target="_mJRG62SqhLyH0FngQ-F-35">
          <mxGeometry width="50" height="50" relative="1" as="geometry">
            <mxPoint x="250" y="80" as="sourcePoint" />
            <mxPoint x="110" y="80" as="targetPoint" />
            <Array as="points">
              <mxPoint x="110" y="80" />
            </Array>
          </mxGeometry>
        </mxCell>
      </root>
    </mxGraphModel>
  </diagram>
</mxfile>
